WixMadeforText_BdIt.ufo
<glyph name="numbersign" format="2">
	<unicode hex="0023"/>
	<advance width="627"/>
	<outline>
		<contour>
			<point x="254" y="0" type="line"/>
			<point x="370" y="0" type="line"/>
			<point x="659" y="715" type="line"/>
			<point x="542" y="715" type="line"/>
		</contour>
		<contour>
			<point x="3" y="166" type="line"/>
			<point x="511" y="166" type="line"/>
			<point x="554" y="269" type="line"/>
			<point x="46" y="269" type="line"/>
		</contour>
		<contour>
			<point x="14" y="0" type="line"/>
			<point x="130" y="0" type="line"/>
			<point x="417" y="715" type="line"/>
			<point x="301" y="715" type="line"/>
		</contour>
		<contour>
			<point x="118" y="446" type="line"/>
			<point x="625" y="446" type="line"/>
			<point x="669" y="549" type="line"/>
			<point x="161" y="549" type="line"/>
		</contour>
	</outline>
</glyph>
<glyph name="zero" format="2">
	<unicode hex="0030"/>
	<advance width="621"/>
	<outline>
		<contour>
			<point x="273" y="-16" type="curve" smooth="yes"/>
			<point x="464" y="-16"/>
			<point x="613" y="204"/>
			<point x="613" y="482" type="curve" smooth="yes"/>
			<point x="613" y="640"/>
			<point x="533" y="731"/>
			<point x="394" y="731" type="curve" smooth="yes"/>
			<point x="203" y="731"/>
			<point x="54" y="511"/>
			<point x="54" y="233" type="curve" smooth="yes"/>
			<point x="54" y="75"/>
			<point x="134" y="-16"/>
		</contour>
		<contour>
			<point x="283" y="94" type="curve" smooth="yes"/>
			<point x="223" y="94"/>
			<point x="190" y="141"/>
			<point x="190" y="229" type="curve" smooth="yes"/>
			<point x="190" y="435"/>
			<point x="282" y="621"/>
			<point x="384" y="621" type="curve" smooth="yes"/>
			<point x="444" y="621"/>
			<point x="476" y="574"/>
			<point x="476" y="486" type="curve" smooth="yes"/>
			<point x="476" y="280"/>
			<point x="384" y="94"/>
		</contour>
	</outline>
</glyph>
<glyph name="four" format="2">
	<unicode hex="0034"/>
	<advance width="652"/>
	<outline>
		<contour>
			<point x="20" y="144" type="line"/>
			<point x="585" y="144" type="line"/>
			<point x="608" y="251" type="line"/>
			<point x="118" y="251" type="line"/>
			<point x="121" y="197" type="line"/>
			<point x="504" y="599" type="line"/>
			<point x="460" y="599" type="line"/>
			<point x="333" y="0" type="line"/>
			<point x="466" y="0" type="line"/>
			<point x="617" y="715" type="line"/>
			<point x="485" y="715" type="line"/>
			<point x="43" y="251" type="line"/>
		</contour>
	</outline>
</glyph>
<glyph name="equal" format="2">
	<unicode hex="003D"/>
	<advance width="632"/>
	<outline>
		<contour>
			<point x="103" y="193" type="line"/>
			<point x="502" y="193" type="line"/>
			<point x="525" y="301" type="line"/>
			<point x="126" y="301" type="line"/>
		</contour>
		<contour>
			<point x="150" y="413" type="line"/>
			<point x="549" y="413" type="line"/>
			<point x="572" y="521" type="line"/>
			<point x="173" y="521" type="line"/>
		</contour>
	</outline>
</glyph>
<glyph name="A" format="2">
	<unicode hex="0041"/>
	<advance width="738"/>
	<outline>
		<contour>
			<point x="149" y="157" type="line"/>
			<point x="551" y="157" type="line"/>
			<point x="575" y="271" type="line"/>
			<point x="173" y="271" type="line"/>
		</contour>
		<contour>
			<point x="-24" y="0" type="line"/>
			<point x="122" y="0" type="line"/>
			<point x="472" y="619" type="line"/>
			<point x="435" y="619" type="line"/>
			<point x="524" y="0" type="line"/>
			<point x="661" y="0" type="line"/>
			<point x="545" y="715" type="line"/>
			<point x="395" y="715" type="line"/>
		</contour>
	</outline>
	<anchor name="ogonek.UC" x="524" y="-30"/>
	<anchor name="top.UC" x="464" y="750"/>
</glyph>
<glyph name="D" format="2">
	<unicode hex="0044"/>
	<advance width="747"/>
	<outline>
		<contour>
			<point x="35" y="0" type="line"/>
			<point x="283" y="0" type="line" smooth="yes"/>
			<point x="537" y="0"/>
			<point x="724" y="169"/>
			<point x="724" y="424" type="curve" smooth="yes"/>
			<point x="724" y="606"/>
			<point x="604" y="715"/>
			<point x="420" y="715" type="curve" smooth="yes"/>
			<point x="187" y="715" type="line"/>
		</contour>
		<contour>
			<point x="194" y="115" type="line"/>
			<point x="297" y="600" type="line"/>
			<point x="402" y="600" type="line" smooth="yes"/>
			<point x="521" y="600"/>
			<point x="583" y="523"/>
			<point x="583" y="413" type="curve" smooth="yes"/>
			<point x="583" y="239"/>
			<point x="463" y="115"/>
			<point x="297" y="115" type="curve" smooth="yes"/>
		</contour>
	</outline>
	<anchor name="top.UC" x="421" y="750"/>
	<guideline x="169" y="0" angle="102"/>
</glyph>
<glyph name="I" format="2">
	<unicode hex="0049"/>
	<advance width="311"/>
	<outline>
		<contour>
			<point x="35" y="0" type="line"/>
			<point x="170" y="0" type="line"/>
			<point x="321" y="715" type="line"/>
			<point x="186" y="715" type="line"/>
		</contour>
	</outline>
	<anchor name="ogonek.UC" x="51" y="-30"/>
	<anchor name="top.UC" x="264" y="750"/>
</glyph>
<glyph name="K" format="2">
	<unicode hex="004B"/>
	<advance width="719"/>
	<outline>
		<contour>
			<point x="35" y="0" type="line"/>
			<point x="170" y="0" type="line"/>
			<point x="321" y="715" type="line"/>
			<point x="186" y="715" type="line"/>
		</contour>
		<contour>
			<point x="483" y="0" type="line"/>
			<point x="642" y="0" type="line"/>
			<point x="370" y="394" type="line"/>
			<point x="361" y="347" type="line"/>
			<point x="759" y="715" type="line"/>
			<point x="597" y="715" type="line"/>
			<point x="238" y="379" type="line"/>
			<point x="227" y="379" type="line"/>
		</contour>
	</outline>
	<anchor name="top.UC" x="443" y="750"/>
	<anchor name="bottom.UC" x="319" y="-50"/>
</glyph>
<glyph name="M" format="2">
	<unicode hex="004D"/>
	<advance width="906"/>
	<outline>
		<contour>
			<point x="35" y="0" type="line"/>
			<point x="166" y="0" type="line"/>
			<point x="306" y="662" type="line"/>
			<point x="238" y="662" type="line"/>
			<point x="366" y="77" type="line"/>
			<point x="462" y="77" type="line"/>
			<point x="849" y="662" type="line"/>
			<point x="773" y="662" type="line"/>
			<point x="633" y="0" type="line"/>
			<point x="765" y="0" type="line"/>
			<point x="916" y="715" type="line"/>
			<point x="761" y="715" type="line"/>
			<point x="403" y="168" type="line"/>
			<point x="457" y="168" type="line"/>
			<point x="341" y="715" type="line"/>
			<point x="186" y="715" type="line"/>
		</contour>
	</outline>
</glyph>
<glyph name="P" format="2">
	<unicode hex="0050"/>
	<advance width="636"/>
	<outline>
		<contour>
			<point x="35" y="0" type="line"/>
			<point x="170" y="0" type="line"/>
			<point x="298" y="601" type="line"/>
			<point x="415" y="601" type="line" smooth="yes"/>
			<point x="483" y="601"/>
			<point x="513" y="565"/>
			<point x="513" y="517" type="curve" smooth="yes"/>
			<point x="513" y="442"/>
			<point x="462" y="392"/>
			<point x="371" y="392" type="curve" smooth="yes"/>
			<point x="243" y="392" type="line"/>
			<point x="219" y="278" type="line"/>
			<point x="354" y="278" type="line" smooth="yes"/>
			<point x="543" y="278"/>
			<point x="649" y="388"/>
			<point x="649" y="525" type="curve" smooth="yes"/>
			<point x="649" y="635"/>
			<point x="579" y="715"/>
			<point x="436" y="715" type="curve" smooth="yes"/>
			<point x="187" y="715" type="line"/>
		</contour>
	</outline>
	<guideline x="170" y="0" angle="102"/>
</glyph>
<glyph name="V" format="2">
	<unicode hex="0056"/>
	<advance width="726"/>
	<outline>
		<contour>
			<point x="242" y="0" type="line"/>
			<point x="377" y="0" type="line"/>
			<point x="789" y="715" type="line"/>
			<point x="644" y="715" type="line"/>
			<point x="312" y="106" type="line"/>
			<point x="349" y="106" type="line"/>
			<point x="277" y="715" type="line"/>
			<point x="135" y="715" type="line"/>
		</contour>
	</outline>
</glyph>
<glyph name="Z" format="2">
	<unicode hex="005A"/>
	<advance width="598"/>
	<outline>
		<contour>
			<point x="-13" y="0" type="line"/>
			<point x="501" y="0" type="line"/>
			<point x="526" y="115" type="line"/>
			<point x="178" y="115" type="line"/>
			<point x="616" y="600" type="line"/>
			<point x="641" y="715" type="line"/>
			<point x="143" y="715" type="line"/>
			<point x="118" y="600" type="line"/>
			<point x="450" y="600" type="line"/>
			<point x="12" y="115" type="line"/>
		</contour>
	</outline>
	<anchor name="top.UC" x="394" y="750"/>
</glyph>
<glyph name="asciicircum" format="2">
	<unicode hex="005E"/>
	<advance width="632"/>
	<outline>
		<contour>
			<point x="97" y="354" type="line"/>
			<point x="227" y="354" type="line"/>
			<point x="460" y="715" type="line"/>
			<point x="338" y="715" type="line"/>
		</contour>
		<contour>
			<point x="445" y="354" type="line"/>
			<point x="568" y="354" type="line"/>
			<point x="479" y="715" type="line"/>
			<point x="366" y="715" type="line"/>
		</contour>
	</outline>
</glyph>
<glyph name="underscore" format="2">
	<unicode hex="005F"/>
	<advance width="451"/>
	<outline>
		<contour>
			<point x="-87" y="-150" type="line"/>
			<point x="367" y="-150" type="line"/>
			<point x="390" y="-44" type="line"/>
			<point x="-65" y="-44" type="line"/>
		</contour>
	</outline>
</glyph>
<glyph name="a" format="2">
	<unicode hex="0061"/>
	<advance width="555"/>
	<outline>
		<contour>
			<point x="326" y="0" type="line"/>
			<point x="442" y="0" type="line"/>
			<point x="501" y="279" type="line" smooth="yes"/>
			<point x="506" y="300"/>
			<point x="509" y="324"/>
			<point x="509" y="344" type="curve" smooth="yes"/>
			<point x="509" y="454"/>
			<point x="437" y="519"/>
			<point x="309" y="519" type="curve" smooth="yes"/>
			<point x="224" y="519"/>
			<point x="138" y="490"/>
			<point x="83" y="435" type="curve"/>
			<point x="146" y="353" type="line"/>
			<point x="186" y="397"/>
			<point x="243" y="418"/>
			<point x="294" y="418" type="curve" smooth="yes"/>
			<point x="375" y="418"/>
			<point x="397" y="367"/>
			<point x="381" y="289" type="curve" smooth="yes"/>
			<point x="344" y="113" type="line"/>
			<point x="349" y="103" type="line"/>
		</contour>
		<contour>
			<point x="278" y="313" type="line"/>
			<point x="110" y="313"/>
			<point x="13" y="244"/>
			<point x="13" y="137" type="curve" smooth="yes"/>
			<point x="13" y="43"/>
			<point x="84" y="-16"/>
			<point x="177" y="-16" type="curve" smooth="yes"/>
			<point x="290" y="-16"/>
			<point x="375" y="71"/>
			<point x="407" y="224" type="curve"/>
			<point x="380" y="242" type="line"/>
			<point x="351" y="141"/>
			<point x="289" y="81"/>
			<point x="221" y="81" type="curve" smooth="yes"/>
			<point x="173" y="81"/>
			<point x="144" y="108"/>
			<point x="144" y="147" type="curve" smooth="yes"/>
			<point x="144" y="197"/>
			<point x="191" y="229"/>
			<point x="274" y="229" type="curve" smooth="yes"/>
			<point x="380" y="229" type="line"/>
			<point x="394" y="313" type="line"/>
		</contour>
	</outline>
	<anchor name="top.LC" x="317" y="544"/>
	<anchor name="ogonek.LC" x="336" y="-30"/>
</glyph>
<glyph name="h" format="2">
	<unicode hex="0068"/>
	<advance width="590"/>
	<outline>
		<contour>
			<point x="18" y="0" type="line"/>
			<point x="150" y="0" type="line"/>
			<point x="191" y="194" type="line" smooth="yes"/>
			<point x="221" y="335"/>
			<point x="273" y="409"/>
			<point x="346" y="409" type="curve" smooth="yes"/>
			<point x="387" y="409"/>
			<point x="410" y="383"/>
			<point x="410" y="340" type="curve" smooth="yes"/>
			<point x="410" y="326"/>
			<point x="406" y="301"/>
			<point x="401" y="273" type="curve" smooth="yes"/>
			<point x="343" y="0" type="line"/>
			<point x="475" y="0" type="line"/>
			<point x="533" y="273" type="line" smooth="yes"/>
			<point x="542" y="312"/>
			<point x="545" y="340"/>
			<point x="545" y="365" type="curve" smooth="yes"/>
			<point x="545" y="459"/>
			<point x="490" y="519"/>
			<point x="407" y="519" type="curve" smooth="yes"/>
			<point x="311" y="519"/>
			<point x="227" y="443"/>
			<point x="195" y="320" type="curve"/>
			<point x="223" y="347" type="line"/>
			<point x="303" y="720" type="line"/>
			<point x="171" y="720" type="line"/>
		</contour>
	</outline>
	<anchor name="bottom.LC" x="244" y="-50"/>
</glyph>
<glyph name="i" format="2">
	<unicode hex="0069"/>
	<advance width="262"/>
	<outline>
		<contour>
			<point x="14" y="0" type="line"/>
			<point x="146" y="0" type="line"/>
			<point x="253" y="503" type="line"/>
			<point x="121" y="503" type="line"/>
		</contour>
		<contour>
			<point x="139" y="656" type="curve" smooth="yes"/>
			<point x="139" y="617"/>
			<point x="167" y="589"/>
			<point x="209" y="589" type="curve" smooth="yes"/>
			<point x="262" y="589"/>
			<point x="303" y="629"/>
			<point x="303" y="679" type="curve" smooth="yes"/>
			<point x="303" y="719"/>
			<point x="275" y="746"/>
			<point x="233" y="746" type="curve" smooth="yes"/>
			<point x="180" y="746"/>
			<point x="139" y="707"/>
		</contour>
	</outline>
	<anchor name="ogonek.LC" x="39" y="-30"/>
</glyph>
<glyph name="j" format="2">
	<unicode hex="006A"/>
	<advance width="262"/>
	<outline>
		<contour>
			<point x="-106" y="-194" type="line"/>
			<point x="-28" y="-194" type="line" smooth="yes"/>
			<point x="64" y="-194"/>
			<point x="115" y="-151"/>
			<point x="136" y="-52" type="curve" smooth="yes"/>
			<point x="254" y="503" type="line"/>
			<point x="122" y="503" type="line"/>
			<point x="9" y="-30" type="line" smooth="yes"/>
			<point x="0" y="-70"/>
			<point x="-14" y="-86"/>
			<point x="-50" y="-86" type="curve" smooth="yes"/>
			<point x="-83" y="-86" type="line"/>
		</contour>
		<contour>
			<point x="140" y="656" type="curve" smooth="yes"/>
			<point x="140" y="617"/>
			<point x="168" y="589"/>
			<point x="210" y="589" type="curve" smooth="yes"/>
			<point x="263" y="589"/>
			<point x="304" y="629"/>
			<point x="304" y="679" type="curve" smooth="yes"/>
			<point x="304" y="719"/>
			<point x="276" y="746"/>
			<point x="234" y="746" type="curve" smooth="yes"/>
			<point x="181" y="746"/>
			<point x="140" y="706"/>
		</contour>
	</outline>
</glyph>
<glyph name="k" format="2">
	<unicode hex="006B"/>
	<advance width="572"/>
	<outline>
		<contour>
			<point x="18" y="0" type="line"/>
			<point x="150" y="0" type="line"/>
			<point x="303" y="720" type="line"/>
			<point x="171" y="720" type="line"/>
		</contour>
		<contour>
			<point x="360" y="0" type="line"/>
			<point x="519" y="0" type="line"/>
			<point x="324" y="271" type="line"/>
			<point x="321" y="248" type="line"/>
			<point x="600" y="503" type="line"/>
			<point x="443" y="503" type="line"/>
			<point x="184" y="261" type="line"/>
			<point x="178" y="261" type="line"/>
		</contour>
	</outline>
	<anchor name="bottom.LC" x="239" y="-50"/>
</glyph>
<glyph name="s" format="2">
	<unicode hex="0073"/>
	<advance width="497"/>
	<outline>
		<contour>
			<point x="-9" y="84" type="line"/>
			<point x="38" y="16"/>
			<point x="133" y="-16"/>
			<point x="222" y="-16" type="curve" smooth="yes"/>
			<point x="344" y="-16"/>
			<point x="449" y="48"/>
			<point x="449" y="159" type="curve" smooth="yes"/>
			<point x="449" y="236"/>
			<point x="395" y="282"/>
			<point x="277" y="310" type="curve" smooth="yes"/>
			<point x="210" y="326"/>
			<point x="189" y="341"/>
			<point x="189" y="365" type="curve" smooth="yes"/>
			<point x="189" y="400"/>
			<point x="223" y="421"/>
			<point x="276" y="421" type="curve" smooth="yes"/>
			<point x="335" y="421"/>
			<point x="383" y="393"/>
			<point x="410" y="351" type="curve"/>
			<point x="492" y="423" type="line"/>
			<point x="448" y="483"/>
			<point x="370" y="519"/>
			<point x="281" y="519" type="curve" smooth="yes"/>
			<point x="155" y="519"/>
			<point x="63" y="449"/>
			<point x="63" y="352" type="curve" smooth="yes"/>
			<point x="63" y="279"/>
			<point x="116" y="229"/>
			<point x="229" y="203" type="curve" smooth="yes"/>
			<point x="296" y="188"/>
			<point x="321" y="173"/>
			<point x="321" y="143" type="curve" smooth="yes"/>
			<point x="321" y="101"/>
			<point x="272" y="83"/>
			<point x="229" y="83" type="curve" smooth="yes"/>
			<point x="158" y="83"/>
			<point x="99" y="115"/>
			<point x="71" y="158" type="curve"/>
		</contour>
	</outline>
	<anchor name="bottom.LC" x="190" y="-50"/>
	<anchor name="top.LC" x="296" y="544"/>
</glyph>
<glyph name="cent" format="2">
	<unicode hex="00A2"/>
	<advance width="625"/>
	<outline>
		<contour>
			<point x="232" y="-116" type="line"/>
			<point x="298" y="-116" type="line"/>
			<point x="455" y="619" type="line"/>
			<point x="389" y="619" type="line"/>
		</contour>
		<contour>
			<point x="459" y="165" type="line"/>
			<point x="425" y="119"/>
			<point x="377" y="93"/>
			<point x="327" y="93" type="curve" smooth="yes"/>
			<point x="256" y="93"/>
			<point x="212" y="142"/>
			<point x="212" y="217" type="curve" smooth="yes"/>
			<point x="212" y="325"/>
			<point x="283" y="408"/>
			<point x="374" y="408" type="curve" smooth="yes"/>
			<point x="428" y="408"/>
			<point x="465" y="385"/>
			<point x="490" y="335" type="curve"/>
			<point x="586" y="406" type="line"/>
			<point x="545" y="477"/>
			<point x="467" y="519"/>
			<point x="376" y="519" type="curve" smooth="yes"/>
			<point x="207" y="519"/>
			<point x="75" y="382"/>
			<point x="75" y="207" type="curve" smooth="yes"/>
			<point x="75" y="75"/>
			<point x="171" y="-17"/>
			<point x="308" y="-17" type="curve" smooth="yes"/>
			<point x="391" y="-17"/>
			<point x="464" y="15"/>
			<point x="523" y="75" type="curve"/>
		</contour>
	</outline>
	<guideline x="257" y="0" angle="102"/>
	<guideline x="323" y="0" angle="102"/>
</glyph>
<glyph name="copyright" format="2">
	<unicode hex="00A9"/>
	<advance width="832"/>
	<outline>
		<contour>
			<point x="537" y="286" type="line"/>
			<point x="515" y="252"/>
			<point x="483" y="231"/>
			<point x="446" y="231" type="curve" smooth="yes"/>
			<point x="385" y="231"/>
			<point x="343" y="284"/>
			<point x="343" y="359" type="curve" smooth="yes"/>
			<point x="343" y="433"/>
			<point x="385" y="486"/>
			<point x="446" y="486" type="curve" smooth="yes"/>
			<point x="483" y="486"/>
			<point x="515" y="465"/>
			<point x="537" y="432" type="curve"/>
			<point x="600" y="496" type="line"/>
			<point x="566" y="541"/>
			<point x="511" y="572"/>
			<point x="441" y="572" type="curve" smooth="yes"/>
			<point x="323" y="572"/>
			<point x="236" y="483"/>
			<point x="236" y="359" type="curve" smooth="yes"/>
			<point x="236" y="234"/>
			<point x="321" y="145"/>
			<point x="439" y="145" type="curve" smooth="yes"/>
			<point x="509" y="145"/>
			<point x="566" y="176"/>
			<point x="600" y="221" type="curve"/>
		</contour>
		<contour>
			<point x="436" y="-26" type="curve" smooth="yes"/>
			<point x="644" y="-26"/>
			<point x="809" y="144"/>
			<point x="809" y="358" type="curve" smooth="yes"/>
			<point x="809" y="572"/>
			<point x="644" y="742"/>
			<point x="436" y="742" type="curve" smooth="yes"/>
			<point x="228" y="742"/>
			<point x="63" y="572"/>
			<point x="63" y="358" type="curve" smooth="yes"/>
			<point x="63" y="144"/>
			<point x="228" y="-26"/>
		</contour>
		<contour>
			<point x="436" y="56" type="curve" smooth="yes"/>
			<point x="275" y="56"/>
			<point x="146" y="189"/>
			<point x="146" y="358" type="curve" smooth="yes"/>
			<point x="146" y="527"/>
			<point x="275" y="660"/>
			<point x="436" y="660" type="curve" smooth="yes"/>
			<point x="597" y="660"/>
			<point x="726" y="527"/>
			<point x="726" y="358" type="curve" smooth="yes"/>
			<point x="726" y="189"/>
			<point x="597" y="56"/>
		</contour>
	</outline>
</glyph>
<glyph name="ordfeminine" format="2">
	<unicode hex="00AA"/>
	<advance width="434"/>
	<outline>
		<contour>
			<point x="305" y="307" type="line"/>
			<point x="409" y="307" type="line"/>
			<point x="455" y="521" type="line" smooth="yes"/>
			<point x="459" y="540"/>
			<point x="461" y="558"/>
			<point x="461" y="574" type="curve" smooth="yes"/>
			<point x="461" y="664"/>
			<point x="402" y="715"/>
			<point x="298" y="715" type="curve" smooth="yes"/>
			<point x="226" y="715"/>
			<point x="157" y="689"/>
			<point x="117" y="649" type="curve"/>
			<point x="169" y="580" type="line"/>
			<point x="198" y="611"/>
			<point x="241" y="630"/>
			<point x="283" y="630" type="curve" smooth="yes"/>
			<point x="342" y="630"/>
			<point x="359" y="593"/>
			<point x="348" y="542" type="curve" smooth="yes"/>
			<point x="317" y="394" type="line"/>
			<point x="321" y="385" type="line"/>
		</contour>
		<contour>
			<point x="271" y="554" type="line" smooth="yes"/>
			<point x="139" y="554"/>
			<point x="63" y="500"/>
			<point x="63" y="414" type="curve" smooth="yes"/>
			<point x="63" y="341"/>
			<point x="119" y="294"/>
			<point x="192" y="294" type="curve" smooth="yes"/>
			<point x="276" y="294"/>
			<point x="339" y="363"/>
			<point x="364" y="483" type="curve"/>
			<point x="350" y="498" type="line"/>
			<point x="328" y="422"/>
			<point x="281" y="378"/>
			<point x="232" y="378" type="curve" smooth="yes"/>
			<point x="201" y="378"/>
			<point x="184" y="396"/>
			<point x="184" y="422" type="curve" smooth="yes"/>
			<point x="184" y="459"/>
			<point x="217" y="483"/>
			<point x="272" y="483" type="curve" smooth="yes"/>
			<point x="341" y="483" type="line"/>
			<point x="362" y="554" type="line"/>
		</contour>
	</outline>
</glyph>
<glyph name="registered" format="2">
	<unicode hex="00AE"/>
	<advance width="515"/>
	<outline>
		<contour>
			<point x="220" y="384" type="line"/>
			<point x="271" y="384" type="line"/>
			<point x="271" y="559" type="line"/>
			<point x="311" y="559" type="line" smooth="yes"/>
			<point x="328" y="559"/>
			<point x="341" y="547"/>
			<point x="341" y="530" type="curve" smooth="yes"/>
			<point x="341" y="513"/>
			<point x="328" y="501"/>
			<point x="311" y="501" type="curve" smooth="yes"/>
			<point x="267" y="501" type="line"/>
			<point x="267" y="456" type="line"/>
			<point x="311" y="456" type="line" smooth="yes"/>
			<point x="360" y="456"/>
			<point x="393" y="486"/>
			<point x="393" y="530" type="curve" smooth="yes"/>
			<point x="393" y="574"/>
			<point x="360" y="604"/>
			<point x="311" y="604" type="curve" smooth="yes"/>
			<point x="220" y="604" type="line"/>
		</contour>
		<contour>
			<point x="347" y="384" type="line"/>
			<point x="409" y="384" type="line"/>
			<point x="335" y="471" type="line"/>
			<point x="277" y="471" type="line"/>
		</contour>
		<contour>
			<point x="304" y="318" type="curve" smooth="yes"/>
			<point x="214" y="318"/>
			<point x="146" y="387"/>
			<point x="146" y="488" type="curve" smooth="yes"/>
			<point x="146" y="589"/>
			<point x="214" y="658"/>
			<point x="304" y="658" type="curve" smooth="yes"/>
			<point x="395" y="658"/>
			<point x="463" y="589"/>
			<point x="463" y="488" type="curve" smooth="yes"/>
			<point x="463" y="387"/>
			<point x="395" y="318"/>
		</contour>
		<contour>
			<point x="304" y="251" type="curve" smooth="yes"/>
			<point x="430" y="251"/>
			<point x="532" y="357"/>
			<point x="532" y="488" type="curve" smooth="yes"/>
			<point x="532" y="619"/>
			<point x="430" y="725"/>
			<point x="304" y="725" type="curve" smooth="yes"/>
			<point x="179" y="725"/>
			<point x="77" y="619"/>
			<point x="77" y="488" type="curve" smooth="yes"/>
			<point x="77" y="357"/>
			<point x="179" y="251"/>
		</contour>
	</outline>
</glyph>
<glyph name="multiply" format="2">
	<unicode hex="00D7"/>
	<advance width="634"/>
	<outline>
		<contour>
			<point x="416" y="156" type="line"/>
			<point x="505" y="228" type="line"/>
			<point x="264" y="559" type="line"/>
			<point x="175" y="486" type="line"/>
		</contour>
		<contour>
			<point x="185" y="152" type="line"/>
			<point x="559" y="482" type="line"/>
			<point x="494" y="562" type="line"/>
			<point x="120" y="232" type="line"/>
		</contour>
	</outline>
</glyph>
<glyph name="germandbls" format="2">
	<unicode hex="00DF"/>
	<advance width="628"/>
	<outline>
		<contour>
			<point x="14" y="0" type="line"/>
			<point x="148" y="0" type="line"/>
			<point x="245" y="455" type="line" smooth="yes"/>
			<point x="269" y="571"/>
			<point x="314" y="624"/>
			<point x="387" y="624" type="curve" smooth="yes"/>
			<point x="437" y="624"/>
			<point x="463" y="598"/>
			<point x="463" y="550" type="curve" smooth="yes"/>
			<point x="463" y="482"/>
			<point x="408" y="426"/>
			<point x="343" y="426" type="curve" smooth="yes"/>
			<point x="322" y="426" type="line"/>
			<point x="299" y="318" type="line"/>
			<point x="341" y="318" type="line" smooth="yes"/>
			<point x="404" y="318"/>
			<point x="446" y="278"/>
			<point x="446" y="217" type="curve" smooth="yes"/>
			<point x="446" y="145"/>
			<point x="400" y="90"/>
			<point x="339" y="90" type="curve" smooth="yes"/>
			<point x="309" y="90"/>
			<point x="284" y="101"/>
			<point x="262" y="123" type="curve"/>
			<point x="196" y="34" type="line"/>
			<point x="236" y="-1"/>
			<point x="280" y="-16"/>
			<point x="340" y="-16" type="curve" smooth="yes"/>
			<point x="477" y="-16"/>
			<point x="581" y="89"/>
			<point x="581" y="228" type="curve" smooth="yes"/>
			<point x="581" y="334"/>
			<point x="501" y="406"/>
			<point x="376" y="406" type="curve" smooth="yes"/>
			<point x="336" y="406" type="line"/>
			<point x="324" y="349" type="line"/>
			<point x="327" y="349" type="line" smooth="yes"/>
			<point x="481" y="349"/>
			<point x="599" y="445"/>
			<point x="599" y="571" type="curve" smooth="yes"/>
			<point x="599" y="669"/>
			<point x="523" y="731"/>
			<point x="403" y="731" type="curve" smooth="yes"/>
			<point x="252" y="731"/>
			<point x="148" y="632"/>
			<point x="113" y="467" type="curve" smooth="yes"/>
		</contour>
	</outline>
</glyph>
<glyph name="thorn" format="2">
	<unicode hex="00FE"/>
	<advance width="633"/>
	<outline>
		<contour>
			<point x="-23" y="-194" type="line"/>
			<point x="109" y="-194" type="line"/>
			<point x="191" y="191" type="line" smooth="yes"/>
			<point x="222" y="337"/>
			<point x="281" y="410"/>
			<point x="356" y="410" type="curve" smooth="yes"/>
			<point x="424" y="410"/>
			<point x="459" y="362"/>
			<point x="459" y="288" type="curve" smooth="yes"/>
			<point x="459" y="178"/>
			<point x="389" y="94"/>
			<point x="304" y="94" type="curve" smooth="yes"/>
			<point x="241" y="94"/>
			<point x="184" y="143"/>
			<point x="181" y="202" type="curve"/>
			<point x="142" y="154" type="line"/>
			<point x="146" y="51"/>
			<point x="220" y="-16"/>
			<point x="325" y="-16" type="curve" smooth="yes"/>
			<point x="474" y="-16"/>
			<point x="596" y="125"/>
			<point x="596" y="304" type="curve" smooth="yes"/>
			<point x="596" y="430"/>
			<point x="527" y="519"/>
			<point x="412" y="519" type="curve" smooth="yes"/>
			<point x="322" y="519"/>
			<point x="244" y="459"/>
			<point x="206" y="351" type="curve"/>
			<point x="224" y="352" type="line"/>
			<point x="302" y="720" type="line"/>
			<point x="170" y="720" type="line"/>
		</contour>
	</outline>
</glyph>
<glyph name="kgreenlandic" format="2">
	<unicode hex="0138"/>
	<advance width="583"/>
	<outline>
		<contour>
			<point x="18" y="0" type="line"/>
			<point x="147" y="0" type="line"/>
			<point x="253" y="503" type="line"/>
			<point x="124" y="503" type="line"/>
		</contour>
		<contour>
			<point x="358" y="0" type="line"/>
			<point x="520" y="0" type="line"/>
			<point x="324" y="271" type="line"/>
			<point x="320" y="249" type="line"/>
			<point x="601" y="503" type="line"/>
			<point x="446" y="503" type="line"/>
			<point x="185" y="261" type="line"/>
			<point x="175" y="261" type="line"/>
		</contour>
	</outline>
</glyph>
<glyph name="Tbar" format="2">
	<unicode hex="0166"/>
	<advance width="605"/>
	<outline>
		<contour>
			<point x="100" y="305" type="line"/>
			<point x="528" y="305" type="line"/>
			<point x="552" y="419" type="line"/>
			<point x="124" y="419" type="line"/>
		</contour>
		<contour>
			<point x="182" y="0" type="line"/>
			<point x="317" y="0" type="line"/>
			<point x="446" y="609" type="line"/>
			<point x="311" y="609" type="line"/>
		</contour>
		<contour>
			<point x="106" y="599" type="line"/>
			<point x="647" y="599" type="line"/>
			<point x="671" y="715" type="line"/>
			<point x="130" y="715" type="line"/>
		</contour>
	</outline>
</glyph>
<glyph name="acutecomb" format="2">
	<unicode hex="0301"/>
	<outline>
		<contour>
			<point x="-84" y="587" type="line"/>
			<point x="28" y="587" type="line"/>
			<point x="209" y="761" type="line"/>
			<point x="59" y="761" type="line"/>
		</contour>
	</outline>
	<anchor name="_top.LC" x="0" y="544"/>
</glyph>
<glyph name="tildecomb" format="2">
	<unicode hex="0303"/>
	<outline>
		<contour>
			<point x="-41" y="737" type="curve" smooth="yes"/>
			<point x="-95" y="737"/>
			<point x="-143" y="697"/>
			<point x="-170" y="628" type="curve"/>
			<point x="-95" y="588" type="line"/>
			<point x="-81" y="627"/>
			<point x="-64" y="647"/>
			<point x="-47" y="647" type="curve" smooth="yes"/>
			<point x="-36" y="647"/>
			<point x="-30" y="643"/>
			<point x="-8" y="623" type="curve" smooth="yes"/>
			<point x="23" y="594"/>
			<point x="52" y="581"/>
			<point x="84" y="581" type="curve" smooth="yes"/>
			<point x="139" y="581"/>
			<point x="186" y="621"/>
			<point x="213" y="690" type="curve"/>
			<point x="139" y="730" type="line"/>
			<point x="124" y="691"/>
			<point x="108" y="671"/>
			<point x="90" y="671" type="curve" smooth="yes"/>
			<point x="80" y="671"/>
			<point x="73" y="675"/>
			<point x="52" y="695" type="curve" smooth="yes"/>
			<point x="19" y="724"/>
			<point x="-8" y="737"/>
		</contour>
	</outline>
	<anchor name="_top.LC" x="0" y="544"/>
</glyph>
<glyph name="macroncomb" format="2">
	<unicode hex="0304"/>
	<outline>
		<contour>
			<point x="-143" y="603" type="line"/>
			<point x="150" y="603" type="line"/>
			<point x="169" y="695" type="line"/>
			<point x="-123" y="695" type="line"/>
		</contour>
	</outline>
	<anchor name="_top.LC" x="0" y="544"/>
</glyph>
<glyph name="dotbelowcomb" format="2">
	<unicode hex="0323"/>
	<outline>
		<contour>
			<point x="-42" y="-249" type="curve" smooth="yes"/>
			<point x="13" y="-249"/>
			<point x="52" y="-209"/>
			<point x="52" y="-157" type="curve" smooth="yes"/>
			<point x="52" y="-122"/>
			<point x="27" y="-98"/>
			<point x="-10" y="-98" type="curve" smooth="yes"/>
			<point x="-64" y="-98"/>
			<point x="-104" y="-138"/>
			<point x="-104" y="-189" type="curve" smooth="yes"/>
			<point x="-104" y="-225"/>
			<point x="-79" y="-249"/>
		</contour>
	</outline>
	<anchor name="_bottom.LC" x="0" y="-50"/>
</glyph>
<glyph name="ogonekcomb" format="2">
	<unicode hex="0328"/>
	<outline>
		<contour>
			<point x="72" y="-160" type="line"/>
			<point x="61" y="-162"/>
			<point x="50" y="-163"/>
			<point x="43" y="-163" type="curve" smooth="yes"/>
			<point x="12" y="-163"/>
			<point x="-6" y="-150"/>
			<point x="-6" y="-125" type="curve" smooth="yes"/>
			<point x="-6" y="-77"/>
			<point x="43" y="-33"/>
			<point x="106" y="0" type="curve"/>
			<point x="36" y="22" type="line"/>
			<point x="-60" y="-32"/>
			<point x="-114" y="-89"/>
			<point x="-114" y="-163" type="curve" smooth="yes"/>
			<point x="-114" y="-219"/>
			<point x="-68" y="-252"/>
			<point x="8" y="-252" type="curve" smooth="yes"/>
			<point x="24" y="-252"/>
			<point x="38" y="-251"/>
			<point x="53" y="-248" type="curve"/>
		</contour>
	</outline>
	<anchor name="_ogonek.LC" x="0" y="-30"/>
</glyph>
<glyph name="emdash" format="2">
	<unicode hex="2014"/>
	<advance width="1000"/>
	<outline>
		<contour>
			<point x="-11" y="221" type="line"/>
			<point x="989" y="221" type="line"/>
			<point x="1011" y="334" type="line"/>
			<point x="11" y="334" type="line"/>
		</contour>
	</outline>
</glyph>
<glyph name="quoteleft" format="2">
	<unicode hex="2018"/>
	<advance width="257"/>
	<outline>
		<contour>
			<point x="205" y="570" type="line"/>
			<point x="209" y="615"/>
			<point x="250" y="679"/>
			<point x="314" y="745" type="curve"/>
			<point x="239" y="745" type="line"/>
			<point x="161" y="676"/>
			<point x="105" y="584"/>
			<point x="105" y="522" type="curve" smooth="yes"/>
			<point x="105" y="480"/>
			<point x="129" y="454"/>
			<point x="171" y="454" type="curve" smooth="yes"/>
			<point x="228" y="454"/>
			<point x="269" y="499"/>
			<point x="269" y="551" type="curve" smooth="yes"/>
			<point x="269" y="589"/>
			<point x="243" y="614"/>
			<point x="202" y="614" type="curve"/>
		</contour>
	</outline>
</glyph>
<glyph name="dagger" format="2">
	<unicode hex="2020"/>
	<advance width="451"/>
	<outline>
		<contour>
			<point x="62" y="397" type="line"/>
			<point x="452" y="397" type="line"/>
			<point x="474" y="503" type="line"/>
			<point x="84" y="503" type="line"/>
		</contour>
		<contour>
			<point x="81" y="-129" type="line"/>
			<point x="211" y="-129" type="line"/>
			<point x="394" y="736" type="line"/>
			<point x="264" y="736" type="line"/>
		</contour>
	</outline>
</glyph>
<glyph name="guilsinglleft" format="2">
	<unicode hex="2039"/>
	<advance width="337"/>
	<outline>
		<contour>
			<point x="116" y="33" type="line"/>
			<point x="263" y="33" type="line"/>
			<point x="166" y="252" type="line"/>
			<point x="356" y="470" type="line"/>
			<point x="209" y="470" type="line"/>
			<point x="23" y="252" type="line"/>
		</contour>
	</outline>
</glyph>
<glyph name="guilsinglright" format="2">
	<unicode hex="203A"/>
	<advance width="338"/>
	<outline>
		<contour>
			<point x="-19" y="33" type="line"/>
			<point x="128" y="33" type="line"/>
			<point x="315" y="252" type="line"/>
			<point x="221" y="470" type="line"/>
			<point x="74" y="470" type="line"/>
			<point x="172" y="252" type="line"/>
		</contour>
	</outline>
</glyph>
<glyph name="minus" format="2">
	<unicode hex="2212"/>
	<advance width="632"/>
	<outline>
		<contour>
			<point x="118" y="304" type="line"/>
			<point x="535" y="304" type="line"/>
			<point x="559" y="411" type="line"/>
			<point x="141" y="411" type="line"/>
		</contour>
	</outline>
</glyph>
<glyph name="circumflexcomb.narrow" format="2">
	<outline>
		<contour>
			<point x="-157" y="587" type="line"/>
			<point x="-52" y="587" type="line"/>
			<point x="95" y="738" type="line"/>
			<point x="-10" y="738" type="line"/>
			<point x="74" y="587" type="line"/>
			<point x="180" y="587" type="line"/>
			<point x="98" y="761" type="line"/>
			<point x="-1" y="761" type="line"/>
		</contour>
	</outline>
	<anchor name="_top.LC" x="0" y="544"/>
</glyph>
<glyph name="gravecomb.cap" format="2">
	<outline>
		<contour>
			<point x="-57" y="793" type="line"/>
			<point x="68" y="793" type="line"/>
			<point x="-30" y="937" type="line"/>
			<point x="-188" y="937" type="line"/>
		</contour>
	</outline>
	<anchor name="_top.UC" x="0" y="750"/>
</glyph>
<glyph name="macroncomb.cap" format="2">
	<outline>
		<contour>
			<point x="-154" y="807" type="line"/>
			<point x="160" y="807" type="line"/>
			<point x="180" y="902" type="line"/>
			<point x="-134" y="902" type="line"/>
		</contour>
	</outline>
	<anchor name="_top.UC" x="0" y="750"/>
</glyph>
<glyph name="ogonekcomb.cap" format="2">
	<outline>
		<contour>
			<point x="86" y="-159" type="line"/>
			<point x="74" y="-161"/>
			<point x="63" y="-162"/>
			<point x="57" y="-162" type="curve" smooth="yes"/>
			<point x="29" y="-162"/>
			<point x="9" y="-147"/>
			<point x="9" y="-119" type="curve" smooth="yes"/>
			<point x="9" y="-58"/>
			<point x="74" y="-18"/>
			<point x="119" y="0" type="curve"/>
			<point x="38" y="22" type="line"/>
			<point x="-33" y="-16"/>
			<point x="-102" y="-78"/>
			<point x="-102" y="-159" type="curve" smooth="yes"/>
			<point x="-102" y="-221"/>
			<point x="-52" y="-252"/>
			<point x="22" y="-252" type="curve" smooth="yes"/>
			<point x="37" y="-252"/>
			<point x="51" y="-251"/>
			<point x="67" y="-248" type="curve"/>
		</contour>
	</outline>
	<anchor name="_ogonek.UC" x="0" y="-30"/>
</glyph>
<glyph name="ringcomb.cap" format="2">
	<outline>
		<contour>
			<point x="56" y="989" type="curve" smooth="yes"/>
			<point x="-29" y="989"/>
			<point x="-95" y="923"/>
			<point x="-95" y="839" type="curve" smooth="yes"/>
			<point x="-95" y="782"/>
			<point x="-55" y="742"/>
			<point x="3" y="742" type="curve" smooth="yes"/>
			<point x="86" y="742"/>
			<point x="154" y="809"/>
			<point x="154" y="892" type="curve" smooth="yes"/>
			<point x="154" y="949"/>
			<point x="113" y="989"/>
		</contour>
		<contour>
			<point x="41" y="920" type="curve" smooth="yes"/>
			<point x="64" y="920"/>
			<point x="80" y="903"/>
			<point x="80" y="878" type="curve" smooth="yes"/>
			<point x="80" y="840"/>
			<point x="53" y="811"/>
			<point x="18" y="811" type="curve" smooth="yes"/>
			<point x="-6" y="811"/>
			<point x="-21" y="827"/>
			<point x="-21" y="853" type="curve" smooth="yes"/>
			<point x="-21" y="891"/>
			<point x="4" y="920"/>
		</contour>
	</outline>
	<anchor name="_top.UC" x="0" y="750"/>
</glyph>
<glyph name="six.dnom" format="2">
	<advance width="381"/>
	<outline>
		<contour>
			<point x="224" y="408" type="line"/>
			<point x="64" y="287"/>
			<point x="6" y="205"/>
			<point x="6" y="112" type="curve" smooth="yes"/>
			<point x="6" y="37"/>
			<point x="58" y="-9"/>
			<point x="138" y="-9" type="curve" smooth="yes"/>
			<point x="255" y="-9"/>
			<point x="331" y="66"/>
			<point x="331" y="168" type="curve" smooth="yes"/>
			<point x="331" y="231"/>
			<point x="287" y="273"/>
			<point x="219" y="273" type="curve" smooth="yes"/>
			<point x="184" y="273"/>
			<point x="155" y="256"/>
			<point x="130" y="223" type="curve"/>
			<point x="138" y="220" type="line"/>
			<point x="169" y="271"/>
			<point x="228" y="324"/>
			<point x="349" y="408" type="curve"/>
		</contour>
		<contour>
			<point x="180" y="198" type="curve" smooth="yes"/>
			<point x="212" y="198"/>
			<point x="233" y="178"/>
			<point x="233" y="148" type="curve" smooth="yes"/>
			<point x="233" y="105"/>
			<point x="198" y="70"/>
			<point x="154" y="70" type="curve" smooth="yes"/>
			<point x="122" y="70"/>
			<point x="101" y="91"/>
			<point x="101" y="120" type="curve" smooth="yes"/>
			<point x="101" y="162"/>
			<point x="138" y="198"/>
		</contour>
	</outline>
</glyph>
